# xmcd
#
# Track frame offsets: 
#        150
#        17105
#        46104
#        64813
#        77396
#        96908
#        111223
#        130048
#        147979
#        165161
#        186685
#        206416
#
# Disc length: 3022 seconds
#
# Revision: 0
# Processed by: cddbd v1.5.2PL0 Copyright (c) Steve Scherf et al.
# Submitted via: ExactAudioCopy v0.99pb5
#
DISCID=9c0bcc0c
DTITLE=Erykah Badu - Icon
DYEAR=2010
DGENRE=Hip-Hop
TTITLE0=On and On
TTITLE1=Next Lifetime
TTITLE2=Tyrone (Live)
TTITLE3=Apple Tree (Live)
TTITLE4=You Got Me (w. The Roots)
TTITLE5=Southern Gul (f. Rahzel)
TTITLE6=Bag Lady (Cheeba Sac Mix)
TTITLE7=Didn't Cha Know
TTITLE8=Love Of My Life (An Ode To Hip-Hop) (f. Common)
TTITLE9=Back In The Day (Puff)
TTITLE10=Danger
TTITLE11=Honey
EXTD=
EXTT0=
EXTT1=
EXTT2=
EXTT3=
EXTT4=
EXTT5=
EXTT6=
EXTT7=
EXTT8=
EXTT9=
EXTT10=
EXTT11=
PLAYORDER=
